<?xml version="1.0" standalone="yes"?>
<svg xmlns="http://www.w3.org/2000/svg" width="451" height="451">
<path style="fill:#f9efec; stroke:none;" d="M0 0L0 451L75 451L96 451C98.8968 451 102.914 451.677 105.606 450.397C108.051 449.234 108.832 446.223 109.98 443.999C112.86 438.421 115.051 432.707 117.671 427C123.112 415.15 132.5 404.253 140.884 394.297C143.767 390.874 147.846 388.929 150 385L152 385C152.899 387.124 152.876 387.101 155 388L152 395C161.647 395.415 171.693 401.359 178.141 391.021C179.138 389.422 179.532 387.793 180 386C173.258 389.978 165.765 392.246 158 394L157 389L163 389L163 382C159.941 385.148 157.345 385.895 153 386C155.417 381.527 160.766 379.506 164.715 376.435C172.682 370.239 181.787 366.113 191 362.144C196.532 359.761 203.019 357.894 207.871 354.24C212.443 350.797 217.275 344.562 220.297 339.715C224.824 332.455 215.896 319.953 212.089 314C204.067 301.456 196.792 290.17 191.938 276C187.379 262.694 186.179 248.441 180 236C183.687 239.2 186.203 243.538 191 245C192.019 268.738 199.755 291.759 214.495 310.184C218.027 314.599 222.751 322.863 228.044 325.142C232.859 327.215 239.846 326 245 326C243.777 327.195 243.58 327.316 242 328C247.758 330.065 255.896 327.262 262 327C264.2 318.556 272.818 321.07 276.972 315.348C278.411 313.366 277.992 310.3 278 308C272.521 305.048 274.111 300.806 270.977 296.585C269.163 294.142 264.797 293.37 262 293L262 296C255.774 296 249.185 295.604 243 294.917C239.514 294.529 236.005 293.276 239 290L235 286C242.826 288.026 260.89 296.113 264 285C257.972 285.476 252.06 286.875 246 287C245.535 285.106 244.934 283.723 244 282C248.011 282.083 251.998 283.072 256 282.896C263.637 282.56 270.649 280.189 278 283C277.275 273.49 267.513 273.685 260 272.573C250.288 271.135 240.721 268.598 231 267.289C223.797 266.318 216.253 266.748 211 261C216.194 261.469 220.8 263.847 226.001 264.575C244.171 267.119 263.666 269.848 282 270L281 266L286 268C286.684 266.42 286.805 266.223 288 265C286.191 264.426 285.931 264.535 284 265L283 259C287.804 259.362 290.538 262.595 295 263.683C302.398 265.487 309.258 262.398 316 260C318.436 250.453 328.766 246.989 332.988 238.907C337.172 230.895 335 217.756 335 209C336.478 209.986 336.203 210 338 210C337.829 202.727 334.089 199.094 331 193L336 193C331.503 190.838 325.91 190.31 321 189.424C313.681 188.104 304.414 185.438 297.001 186.365C293.987 186.742 291.527 188.3 288.715 189.25C281.909 191.549 277.113 189.121 274.897 197.996C273.856 202.167 276.984 205.27 278.215 209.015C280.515 216.007 281.022 223.773 282.428 230.985C282.922 233.515 284.416 236.517 283.423 239.07C282.008 242.705 276.509 246.047 272.961 247.312C269.184 248.659 264.962 247.16 261 248C264.493 244.426 268.879 245.062 271 240L267 240L267 244C261.557 242.628 254.77 243.487 249 243C249.311 238.898 250.4 237.019 254 235L255 239C259.035 234.941 275.378 226.729 265 220L265 225C262.706 219.258 265.361 214.591 267.029 209C269.159 201.865 270.495 194.293 272 187L268 187L268 183L271 183C270.818 180.276 270.265 178.417 269 176C278.159 173.813 287.733 172.823 297 170.999C305.895 169.249 314.886 166.574 324 167C323.994 158.96 320.617 156.195 316 150C321.177 151.844 329.686 151.222 326.103 143.228C324.82 140.366 321.678 140.024 319.304 138.443C314.85 135.475 314.758 130.606 316.854 126.035C319.178 120.967 323.729 123.381 327.857 121.262C330.338 119.987 331.638 117.43 334 116C332.297 112.031 328.181 106.449 323.946 104.932C319.388 103.3 312.953 104.19 308 103.2C302.523 102.105 296.55 99.774 291.015 99.4329C288.129 99.255 285.76 101.177 282.91 100.965C277.222 100.542 272.615 96.0133 267 95L267 90C266.315 91.2483 266.251 91.5485 266 93C260.402 92.6964 256.736 90.035 253 86L260 89C253.971 79.0382 244.04 86.1994 236 87.7261C229.786 88.906 223.113 88.2442 217 87L217 91C211.291 91.0038 203.063 90.5716 198.314 94.287C194.632 97.1679 192.591 108.299 193.498 112.715C194.074 115.515 195.99 117.985 196.103 120.911C196.241 124.497 193.571 127.169 194.283 131.001C194.818 133.878 197.011 136.137 197.457 139C198.219 143.901 191.016 148.926 194.043 153.491C196.16 156.683 202.557 157.471 206 158.196C217.482 160.615 229.295 164.068 241 165C241.607 168.711 244.012 171.402 245 175C240.914 173.739 237.238 171.672 233 171C233.203 177.135 237.445 178.977 240 184C229.438 184.379 219.479 180.719 209 180.389C202.847 180.195 196.864 182.386 193 176C199.399 175.494 205.545 174.018 212 174C211.014 175.479 211 175.203 211 177C216.344 177.015 220.884 177.779 226 176C225.991 173.407 226.488 169.887 224.397 167.924C222.6 166.237 219.357 165.542 217 165.209C209.921 164.21 196.829 161.916 190.093 164.603C187.167 165.771 185.271 168.936 183 171C183.773 167.625 182.746 165.085 183 161.832C183.178 159.549 184.455 157.227 185 155L181 157C180.883 159.73 180.501 162.314 180 165C184.467 170.903 179.83 177.141 178 183C180.371 181.967 182.022 180.652 184 179C183.382 183.846 180.987 188.212 180 193C172.369 177.794 172.498 156.67 170.831 140C169.432 126.012 167.899 112.022 166.91 98C166.563 93.0751 164.579 87.9483 165.228 83C166.855 70.6024 177.59 59.1555 184.559 49.4236C187.639 45.121 189.563 40.1372 193.304 36.2894C202.76 26.5627 216.549 18.1428 229 12.9915C234.389 10.7618 243.912 11.0924 246 5L242 7L242 3C262.334 3 283.09 5.35773 303 9.66821C318.546 13.0338 332.814 18.3053 347 25.3982C352.233 28.0146 358.198 30.1713 362.91 33.6875C367.69 37.2548 371.028 43.3166 374.664 47.9854C378.921 53.4511 384.481 58.8929 387.715 65.0394C392.3 73.753 396.118 88.1942 396.907 98C399.004 124.07 388.137 148.34 386.174 174C385.699 180.221 389.997 181.2 392.106 186.129C393.833 190.162 393.434 196.769 392.624 201C391.203 208.43 388.9 218.161 385.352 224.856C383.341 228.65 379.953 229.423 379 234L383 230C380.654 237.35 373.931 246.737 366.981 250.468C362.548 252.848 352.493 253.076 350.514 258.343C349.524 260.978 349.993 264.232 349.561 267C348.623 273.015 344.732 282.117 347.407 287.985C349.259 292.045 353.703 294.67 357 297.438C363.052 302.52 369.256 307.698 374.957 313.17C380.348 318.345 382.607 325.19 385.583 331.83C387.839 336.867 390.77 341.573 392 347C398.44 349.853 403.742 354.871 409.454 358.925C418.631 365.438 427.414 372.178 436.91 378.308C441.656 381.371 445.397 384.588 451 386L451 0L0 0z"/>
<path style="fill:#55626d; stroke:none;" d="M242 3L242 7C244.092 6.59433 244.02 6.78333 245 5C244.093 9.34845 239.899 9.68182 236 10.7338C229.487 12.4912 222.575 14.801 217 18.6697C209.218 24.07 199.933 29.4918 193.326 36.3001C187.063 42.7535 181.713 52.4672 176.667 60.0008C171.053 68.3808 165.092 77.6552 165 88L167 88L167 82L170 82C170.106 86.4011 171.215 92.4092 177.003 92.2878C183.014 92.1617 186.264 83.3961 192.004 81.564C195.825 80.3443 200.175 81.6259 204 82.2462C210.749 83.3406 218.163 84.9213 225 84.9213C230.109 84.9213 236.046 84.7192 237 79C239.249 80.1535 239.846 80.7511 241 83C249.118 82.8997 257.31 81.5501 265 84.5803C272.113 87.3829 281.273 94.7609 289 94.6019C293.725 94.5046 298.43 92.4474 303 91.4252C306.928 90.5465 311.227 90.4234 314.999 89.01C323.398 85.8631 327.654 79.0162 336.866 84.6929C338.282 85.5659 338.992 86.7277 340 88L334 90L334 87C326.472 89.8136 322.09 98.0931 314 100C315.82 105.978 319.281 103.061 323.946 104.639C328.71 106.25 333.301 113.311 334 118L332 117C329.805 123.949 324.241 119.879 319.652 123.052C316.131 125.487 315.115 132.096 315 136C317.124 136.899 317.101 136.876 318 139C321.511 139.18 324.618 140.105 328 141C327.555 143.107 328.004 145.721 327.185 147.718C326.334 149.792 324.109 151.066 323 153C320.672 151.817 318.489 150.777 316 150C318.156 154.101 326.436 158.556 324.504 163.853C322.939 168.142 314.686 167.281 311 168.001C297.382 170.658 283.466 172.683 270 176C270.83 180.753 269.336 182.722 268 187L272 187C270.052 193.929 268.877 201.03 267.104 208C265.88 212.812 264.118 216.97 264 222L268 218C267.994 227.391 266.571 232.917 257 236L257 240C254.195 237.437 252.863 236.121 249 237C250.248 237.685 250.549 237.749 252 238L250 242C256.144 244.817 260.557 243.281 267 243L270 238L274 242L270 242L270 246C267.066 245.36 264.934 245.36 262 246C264.42 247.086 267.296 247.784 270 247.697C274.629 247.547 282.372 243.639 283.436 238.71C284.103 235.621 282.779 232.039 282.25 229C281.071 222.227 279.905 215.541 277.738 209.001C276.854 206.331 274.579 203.494 274.31 200.715C273.871 196.174 277.584 190.762 278 186L285 185C284.518 182.636 284.364 182.482 282 182C292.152 170.434 310.639 175.07 324 172C324.012 175.502 323.963 178.092 326 181C321.437 182.185 315.695 185.388 310.996 184.718C305.143 183.885 295.647 174.512 291 181L287 180C287.11 182.442 287.428 184.623 288 187C284.59 187.03 281.85 187.053 279 189C286.62 191.247 291.704 186.208 299 186.39C311.45 186.7 323.694 191.218 336 192L332 193C334.121 199.695 337.975 203.645 338 211C336.365 210.455 336.545 210.635 336 209C332.555 217.211 335.961 228.085 333.701 236.91C332.363 242.133 326.605 244.488 323.093 248.054C319.529 251.673 317.707 256.681 314.161 260.196C310.204 264.119 300.314 265.05 295.09 263.683C290.858 262.576 288.678 259.353 284 259L284 264L288 264C286.703 265.594 286.465 266.018 286 268L282 267L282 271C264.406 266.448 245.046 266.607 227 264.83C221.657 264.304 217.15 261.728 212 261C215.823 267.207 223.534 266.46 230 267.285C239.74 268.529 249.309 271.005 259 272.562C263.417 273.271 269.786 272.687 273.695 275.027C277.22 277.137 279.347 282.155 280 286C274.332 278.014 264.33 282.363 256 282.791C252.348 282.979 248.667 282.076 245 282L247 287C252.723 286.882 258.334 285.717 264 285C259.542 295.739 243.621 287.672 235 286C237.216 289.212 240.192 290.454 244 291C241.429 291.563 239.607 291.436 237 291C241.186 297.11 255.19 295.995 262 296L262 293C265.815 293.488 269.238 295.176 273 296C271.712 301.676 273.059 306.251 279 308C278.438 311.025 278.064 313.922 278 317C271.65 317.938 263.978 320.313 262 327C254.288 327.159 242.639 331.795 236 328L244 328L244 326C239.875 326 233.916 327.938 230.083 326.667C225.728 325.222 223.271 320.352 220.694 317C216.467 311.5 209.69 307.433 206.611 301C203.499 294.497 200.951 287.605 198 281C196.606 277.879 196.543 274.755 193 274C193.966 269.934 194.651 266.633 191 264C191 265.797 191.014 265.521 192 267C187.587 270.918 193.418 280.388 194.997 285C199.217 297.327 208.052 308.05 215.035 318.965C217.84 323.348 223.241 331.224 221.923 336.804C220.73 341.854 215.174 346.613 211.7 350.169C204.636 357.4 196.039 360.011 187.09 364.076C179.197 367.66 172.233 371.488 165.155 376.449C161.519 378.998 156.583 381.443 154 385C157.593 384.804 159.954 383.88 163 382C163.052 384.528 163.278 386.582 164 389C160.259 389.43 158.661 390.186 158 394C160.936 393.585 163.209 392.154 166.039 391.4C171.552 389.93 177.565 391.36 177 384C181.242 390.158 175.076 397.218 168.015 397.86C162.975 398.319 157.316 395.11 152 395C153.564 390.571 153.5 384.658 147.093 388.502C142.856 391.045 139.458 396.124 136.505 400C131.654 406.365 125.942 412.202 121.66 419C115.741 428.396 111.433 440.466 108 451L205 451C213.377 451 232.589 454.278 236 444L227 444L227 446L231 446L226 448L226 441C230.25 441.786 233.115 442.063 237 440C239.297 443.424 241.891 442.127 244.996 439.955C249.965 436.479 253.592 432.049 258 428C255.347 438.079 241.358 444.758 233 450C238.707 452.395 246.846 451 253 451L297 451L448 451L448 445C437.676 445.746 436.227 438.644 432 431C438.274 435.746 443.612 440.904 451 444L451 386C443.441 385.011 438.854 378.768 432 376C433.661 381.865 439.217 383.092 442 388C430.378 383.746 419.371 376.197 407 374L409 367C405.744 366.453 401.999 362.435 401 367L400 363C406.522 363.96 412.59 366.666 419 368L418 372L426 372C416.991 361.258 401.856 356.469 392.803 345.779C385.432 337.075 383.584 324.874 377.355 315.439C374.044 310.424 368.488 306.622 364 302.718C357.952 297.458 351.77 291.238 345 287C346.337 281.467 348.51 275.678 348.91 270C349.19 266.045 348.015 260.735 350.742 257.419C355.311 251.864 364.922 253.515 370 248C366.237 248.01 362.7 248.313 359 249C360.886 241.958 364.106 233.313 371 230C370.906 227.795 370.644 226.106 370 224L365 225C363.235 213.48 377.958 209.57 379 198L382 198C381.504 194.562 379.215 192.271 378.451 189C377.355 184.303 382.385 180.732 386 179C386.571 151.355 400.342 124.948 396.711 97C395.425 87.1068 392.55 73.7708 387.726 65C384.169 58.5325 378.578 52.7692 374.003 47C370.508 42.5928 367.33 37.1453 362.829 33.6875C357.369 29.4921 350.14 26.8232 344 23.7531C313.158 8.332 276.257 3 242 3z"/>
<path style="fill:#7f9db0; stroke:none;" d="M271 4L272 5L271 4M277 5L278 6L277 5M302 9L303 10L302 9M235.667 10.3333C235.222 10.7779 236.278 10.7221 236.333 10.6667C236.778 10.2224 235.722 10.2777 235.667 10.3333M306 10L307 11L306 10M233 11L234 12L233 11M229 12L230 13L229 12M234 15C237.951 16.8043 241.386 22.2766 245.151 23.2631C248.857 24.2341 249.333 18.5489 248.407 16.2639C246.003 10.3255 237.945 12.1896 234 15M314 12L315 13L314 12M227 13L228 14L227 13M222 15L223 16L222 15M218 17L219 18L218 17M335 19L336 20L335 19M214 20L215 21L214 20M337 20L338 21L337 20M212.667 21.3333C212.222 21.7779 213.278 21.7221 213.333 21.6667C213.778 21.2224 212.722 21.2777 212.667 21.3333M339 21L340 22L339 21M211 22L212 23L211 22M341 22L342 23L341 22M208 25C209.58 24.3164 209.777 24.1952 211 23C209.42 23.6835 209.223 23.8048 208 25M343 23L344 24L343 23M345 24L346 25L345 24M205.667 26.3333C205.222 26.7779 206.278 26.7221 206.333 26.6667C206.778 26.2224 205.722 26.2777 205.667 26.3333M349 26L350 27L349 26M204 27L205 28L204 27M351 27L352 28L351 27M203 28L204 29L203 28M353 28L354 29L353 28M201 29L202 30L201 29M355 29L356 30L355 29M200 30L201 31L200 30M357 30L358 31L357 30M198.667 31.3333C198.222 31.7779 199.278 31.7221 199.333 31.6667C199.778 31.2224 198.722 31.2777 198.667 31.3333M358 31L359 32L358 31M197 32L198 33L197 32M361 32L362 33L361 32M196 33L197 34L196 33M280 33C280.598 34.1955 280.466 33.9774 282 35L280 35C280.65 36.2997 280.147 36 282 36C280.258 37.1113 279.881 37.2704 279 39L284 38L284 33L280 33M363 33L364 34L363 33M195 34L196 35L195 34M364 34L365 35L364 34M193 35L194 36L193 35M365.333 35.6667C365.278 35.7223 365.222 36.7777 365.667 36.3333C365.722 36.2778 365.778 35.2222 365.333 35.6667M192 36L193 37L192 36M366 37L367 38L366 37M191 38L192 39L191 38M367 38L368 39L367 38M190 39L191 40L190 39M368 39L369 40L368 39M189.333 40.6667C189.278 40.7221 189.222 41.7779 189.667 41.3333C189.722 41.2777 189.778 40.2223 189.333 40.6667M369 41L370 42L369 41M370 42L371 43L370 42M187 44C186.014 45.4785 186 45.2032 186 47C187.289 45.5574 187.401 45.7663 187 44M372 45L373 46L372 45M373 46L374 47L373 46M374 47L375 48L374 47M375 48L376 49L375 48M183 50C182.014 51.4785 182 51.2031 182 53C183.289 51.5574 183.401 51.7663 183 50M276 51C278.698 51.9688 281.161 51.3528 284 51C281.302 50.0312 278.839 50.6472 276 51z"/>
<path style="fill:#f9efec; stroke:none;" d="M284 50C275.286 53.2635 265.22 54.8347 256 56L256 63C262.562 62.9993 270.824 63.0005 272 55C276.778 58.4149 287.442 58.4331 284 50z"/>
<path style="fill:#7f9db0; stroke:none;" d="M376 50L377 51L376 50M379 53L380 54L379 53M265 54C266.506 54.683 267.315 54.8259 269 55C267.494 54.3169 266.685 54.1741 265 54M272 55C270.971 58.9392 268.239 59.9761 266 63C269.04 62.2757 271.878 62.0262 275 62C272.894 62.6438 271.205 62.9059 269 63C269.064 66.0779 269.438 68.9749 270 72L275 71C274.35 69.7002 274.853 70 273 70C277.66 68.4186 282.076 68.5507 283 63L279 63C280.801 62.4382 282.122 62.1759 284 62L284 67C289.57 66.2599 294.728 62.9802 300 61C293.852 58.2399 288.285 60.5198 282 59.8519C278.105 59.438 275.338 56.7208 272 55M380 55L381 56L380 55M178.333 56.6667C178.278 56.7221 178.222 57.7779 178.667 57.3333C178.722 57.2777 178.778 56.2223 178.333 56.6667M250 56C252.052 56.8742 253.747 56.9528 256 57C253.948 56.1258 252.253 56.0472 250 56M283.667 56.3333C283.222 56.7777 284.278 56.7223 284.333 56.6667C284.778 56.2223 283.722 56.2778 283.667 56.3333M234 58C235.684 58.9813 237.999 58.9181 239.556 60.3055C241.372 61.9241 240.864 63.8877 243 65C241.199 65.5618 239.878 65.8241 238 66C242.747 67.8527 248.119 66.2818 249 61L243 65C242.691 62.5527 242.195 61.1662 241 59L247 59L247 57L234 58M279 57C280.506 57.683 281.315 57.8259 283 58C281.494 57.3169 280.685 57.1741 279 57M382 57L383 58L382 57M177 58L178 59L177 58M278 58L279 59L278 58M383.333 58.6667C383.278 58.7222 383.222 59.7778 383.667 59.3333C383.722 59.2778 383.778 58.2222 383.333 58.6667z"/>
<path style="fill:#f9efec; stroke:none;" d="M231 68C235.255 67.9526 238.859 66.5273 243 66C242.059 64.0413 241.304 61.2864 239.407 60.0285C233.85 56.3443 231.532 64.1538 231 68z"/>
<path style="fill:#7f9db0; stroke:none;" d="M254 59L253 64L264 64C261.387 62.9023 258.835 63.0072 256 63L256 59L254 59M176 60L177 61L176 60M231 60L231 62C232.635 61.455 232.455 61.6351 233 60L231 60M175 61L176 62L175 61M226 61L226 63L228 63L228 61L226 61M385 61L386 62L385 61z"/>
<path style="fill:#f9efec; stroke:none;" d="M279 62C280.506 62.683 281.315 62.8259 283 63C281.509 67.9257 277.764 68.6072 273 69C276.518 70.9953 280.144 69.5167 284 69L284 62L279 62z"/>
<path style="fill:#7f9db0; stroke:none;" d="M386 62L387 63L386 62M174 63L175 64L174 63M173 64L174 65L173 64M387 64L388 65L387 64M388 65L389 66L388 65M172 66L173 67L172 66M226 68C228.332 68.9845 230.457 68.9813 233 69L231 66L226 68M170.333 69.6667C170.278 69.7221 170.222 70.7778 170.667 70.3333C170.722 70.2777 170.778 69.2223 170.333 69.6667M280 69C281.506 69.683 282.315 69.8259 284 70C282.494 69.317 281.685 69.1741 280 69M277 84C283.888 83.0717 294.258 76.2356 296 87C303.567 86.7803 313.107 81.6605 312 73C307.757 73.947 304.441 75.3216 300 75L301 69C293.277 69.947 277.676 75.215 277 84M276 70C277.248 70.6848 277.548 70.7488 279 71C277.752 70.3152 277.452 70.2512 276 70M169 71L170 72L169 71M167 76L168 77L167 76M391 76L392 77L391 76M166 78L167 79L166 78M237 79C235.403 84.2597 230.07 84.821 225 84.821C214.47 84.821 202.38 78.9606 192.004 81.3032C185.925 82.6756 182.988 91.4171 177.003 91.7438C171.715 92.0325 170.219 85.9971 170 82L167 82C166.826 84.6124 166.582 85.9433 165 88C167.179 96.8448 167.266 105.973 168.169 115C170.763 140.939 171.905 167.764 179 193C179.951 190.423 179.862 187.758 180 185C183.499 184.566 184.755 181.414 182 179L183 183C180.799 182.519 180.201 182.519 178 183C178.899 180.876 178.876 180.899 181 180C181.197 175.418 183.839 168.355 180 165C180.648 162.291 180.942 159.784 181 157C183.092 156.594 183.02 156.783 184 155C183.78 157.32 182.649 159.514 182.554 161.832C182.422 165.039 183.529 167.65 183 171C187.481 168.279 189.344 164.055 188 159C192.532 157.412 192.135 153.08 194.032 149.17C195.57 145.998 198.505 142.79 198.058 139C197.709 136.041 195.254 133.852 194.532 131.001C193.555 127.138 196.703 124.574 196.481 120.911C196.267 117.387 193.66 114.439 193.56 110.91C193.504 108.918 194.157 106.927 194.576 105C195.177 102.233 195.349 98.7747 196.988 96.3796C200.868 90.7136 210.932 91.0167 217 91L217 87C227.686 89.996 236.895 87.4956 247 84C244.948 83.1258 243.253 83.0472 241 83C240.161 80.3735 239.626 79.8387 237 79M392 79L393 80L392 79M165 80L166 81L165 80M250 83C253.592 85.0191 257.142 85.8742 260 89C257.64 87.6873 255.609 86.6588 253 86C254.829 89.6794 264.443 97.268 266 90C266.562 91.8006 266.824 93.1218 267 95C272.192 96.5273 276.602 100.151 281.961 101.184C285.293 101.827 287.76 99.5999 291.015 99.7384C299.081 100.082 308.014 103.451 316 105L314 100C322.243 98.8779 327.104 90.8874 334 87L334 90L340 88C337.894 83.9855 331.716 80.4152 326.975 81.8719C323.043 83.0801 319.698 86.3292 315.996 88.1204C311.068 90.5046 305.276 90.5782 300 91.8951C296.226 92.8372 291.961 94.775 288 94.2816C280.589 93.3586 272.935 87.3157 266 84.5803C260.271 82.3206 255.975 82.5291 250 83M247.667 82.3333C247.222 82.7779 248.278 82.7222 248.333 82.6667C248.778 82.2224 247.722 82.2777 247.667 82.3333z"/>
<path style="fill:#f9efec; stroke:none;" d="M229.667 85.3333C229.222 85.7779 230.278 85.7221 230.333 85.6667C230.778 85.2224 229.722 85.2777 229.667 85.3333z"/>
<path style="fill:#7f9db0; stroke:none;" d="M396.333 94.6667C396.278 94.7223 396.222 95.7777 396.667 95.3333C396.722 95.2778 396.778 94.2222 396.333 94.6667M319 104L320 105L319 104M323 104C324.248 104.685 324.548 104.749 326 105C324.752 104.315 324.452 104.251 323 104M326 105L327 106L326 105M327 106L328 107L327 106M328.667 109.333C328.222 109.778 329.278 109.722 329.333 109.667C329.778 109.222 328.722 109.278 328.667 109.333M330 110L331 111L330 110M333.333 113.667C333.278 113.722 333.222 114.778 333.667 114.333C333.722 114.278 333.778 113.222 333.333 113.667z"/>
<path style="fill:#f9efec; stroke:none;" d="M192 115C190.737 121.119 189.183 127.144 187 133C191.611 132.017 194.063 118.754 192 115z"/>
<path style="fill:#7f9db0; stroke:none;" d="M331 116L330 121C332.866 120.427 331.486 119.523 333 117L334 118C333.02 116.217 333.092 116.406 331 116M319.667 121.333C319.222 121.778 320.278 121.722 320.333 121.667C320.778 121.222 319.722 121.278 319.667 121.333M327 121C328.248 121.685 328.548 121.749 330 122C328.752 121.315 328.452 121.251 327 121M318 122L317 126C318.146 124.36 318.393 123.924 318 122M316 126L316 130C316.71 128.24 316.71 127.76 316 126M394 131L395 132L394 131M316.667 136.333C316.222 136.778 317.278 136.722 317.333 136.667C317.778 136.222 316.722 136.278 316.667 136.333M320 139C321.506 139.683 322.315 139.826 324 140C322.494 139.317 321.685 139.174 320 139M324.667 140.333C324.222 140.778 325.278 140.722 325.333 140.667C325.778 140.222 324.722 140.278 324.667 140.333M326 141L326 144C327.015 142.861 327.309 142.388 328 141L326 141M327 144L327 149C327.83 146.969 327.83 146.03 327 144M321.667 152.333C321.222 152.778 322.278 152.722 322.333 152.667C322.778 152.222 321.722 152.278 321.667 152.333z"/>
<path style="fill:#55626d; stroke:none;" d="M192 153C191.373 156.075 190.719 157.427 188 159L189 164C202.761 164 216.997 164.153 230 169L229 173C228.014 171.522 228 171.797 228 170C226.651 172.637 227.048 174.213 228 177C222.286 177.404 216.722 177.004 211 177L212 174C205.564 174.004 200.048 174.835 194 177C199.052 182.785 203.358 180.348 210 180.684C219.742 181.177 229.184 183.973 239 184L237 178L233 178C232.942 175.216 232.648 172.709 232 170C236.403 171.477 240.324 173.531 245 174C244.161 171.374 243.626 170.839 241 170L241 166C234.644 164.579 228.478 162.593 222 161.424C211.514 159.533 201.373 158.569 192 153z"/>
<path style="fill:#7f9db0; stroke:none;" d="M193 154L194 155L193 154M198.667 156.333C198.222 156.778 199.278 156.722 199.333 156.667C199.778 156.222 198.722 156.278 198.667 156.333M320.667 156.333C320.222 156.778 321.278 156.722 321.333 156.667C321.778 156.222 320.722 156.278 320.667 156.333M322.667 157.333C322.222 157.778 323.278 157.722 323.333 157.667C323.778 157.222 322.722 157.278 322.667 157.333M203 158C204.769 158.779 206.036 158.912 208 159C206.231 158.221 204.964 158.088 203 158M209 159C210.506 159.683 211.315 159.826 213 160C211.494 159.317 210.685 159.174 209 159M324 159L324 166C325.648 163.445 325.397 161.694 324 159M216.667 160.333C216.222 160.778 217.278 160.722 217.333 160.667C217.778 160.222 216.722 160.278 216.667 160.333z"/>
<path style="fill:#f9efec; stroke:none;" d="M186.667 162.333C186.222 162.778 187.278 162.722 187.333 162.667C187.778 162.222 186.722 162.278 186.667 162.333z"/>
<path style="fill:#7f9db0; stroke:none;" d="M237 165C238.506 165.683 239.315 165.826 241 166C239.494 165.317 238.685 165.174 237 165M221.667 166.333C221.222 166.778 222.278 166.722 222.333 166.667C222.778 166.222 221.722 166.278 221.667 166.333M319.667 166.333C319.222 166.778 320.278 166.722 320.333 166.667C320.778 166.222 319.722 166.278 319.667 166.333M225 167L226 173C226.685 171.752 226.749 171.451 227 170C227.986 171.479 228 171.203 228 173C229.081 171.542 229.436 170.752 230 169C228.255 168.11 226.875 167.547 225 167M241.667 169.333C241.222 169.778 242.278 169.722 242.333 169.667C242.778 169.222 241.722 169.278 241.667 169.333M166 171C166 183.359 167.313 197.185 171 209L176 209C174.161 202.53 171.348 196.993 171.039 190C170.736 183.142 173.557 176.615 172 170L166 171M232 172L235 171C233.222 170.045 232.979 170.234 232 172z"/>
<path style="fill:#f9efec; stroke:none;" d="M295 176C302.257 182.636 322.473 189.881 323 174C320.201 173.818 317.647 172.556 314.92 172.388C312.294 172.227 309.552 173.741 306.985 174.231C302.967 174.999 298.918 174.841 295 176z"/>
<path style="fill:#7f9db0; stroke:none;" d="M317 173C319.052 173.874 320.747 173.953 323 174C322.768 177.19 322.203 178.68 320 181C322.323 181.922 323.581 181.687 326 181C324.325 177.989 324.038 175.42 324 172L317 173M239.667 173.333C239.222 173.778 240.278 173.722 240.333 173.667C240.778 173.222 239.722 173.278 239.667 173.333M306 173C308.052 173.874 309.747 173.953 312 174C309.948 173.126 308.253 173.047 306 173M226 174C224.87 175.4 223.782 176.416 223 178L228 177C227.316 175.42 227.195 175.223 226 174M243.667 174.333C243.222 174.778 244.278 174.722 244.333 174.667C244.778 174.222 243.722 174.278 243.667 174.333M296 174C299.163 175.327 302.586 175 306 175C302.837 173.673 299.414 174 296 174M270.667 175.333C270.222 175.778 271.278 175.722 271.333 175.667C271.778 175.222 270.722 175.278 270.667 175.333M195 179C195 176.915 194.862 177.276 197 177C194.606 175.655 191.879 177.247 195 179M269.333 176.667C269.278 176.722 269.222 177.778 269.667 177.333C269.722 177.278 269.778 176.222 269.333 176.667M286 177L292 179C294.121 178.754 295.874 178.769 298 179C294.445 175.669 290.534 175.663 286 177M233.667 177.333C233.222 177.778 234.278 177.722 234.333 177.667C234.778 177.222 233.722 177.278 233.667 177.333z"/>
<path style="fill:#f9efec; stroke:none;" d="M285 178L285 182C285.685 180.752 285.749 180.452 286 179C288.645 178.923 290.266 179.003 292 177L285 178z"/>
<path style="fill:#7f9db0; stroke:none;" d="M284 179C282.964 180.186 282.661 180.604 282 182C284.251 181.527 285.118 181.14 284 179M286 179L285 185L278 186C278.307 188.123 278.382 188.686 280 190C280 186.197 284.986 187 288 187L287 180L291 181C289.46 179.197 288.402 179.168 286 179M298 179C299.248 179.685 299.548 179.749 301 180C299.752 179.315 299.452 179.251 298 179M381 182C383.569 182 383.457 184.828 385 187C382.981 185.849 382.277 184.985 381 183C374.449 187.302 380.595 192.478 382 198L379 198C377.257 209.168 362.375 213.399 365 225L370 224L371 230C363.537 232.159 360.374 242.02 359 249C363.247 248.464 366.78 248.007 371 249C375.082 242.521 381.471 237.903 383 230C381.267 231.222 380.849 232.009 380 234C380.218 229.177 384.48 228.212 386.097 223.942C389.968 213.726 393.131 202.935 392.996 192C392.922 185.991 387.742 175.425 381 182z"/>
<path style="fill:#55626d; stroke:none;" d="M182.333 181.667C182.278 181.722 182.222 182.778 182.667 182.333C182.722 182.278 182.778 181.222 182.333 181.667z"/>
<path style="fill:#7f9db0; stroke:none;" d="M239 181L239 184C239.696 182.446 239.696 182.554 239 181M302.667 181.333C302.222 181.778 303.278 181.722 303.333 181.667C303.778 181.222 302.722 181.278 302.667 181.333z"/>
<path style="fill:#f9efec; stroke:none;" d="M382 181C381.37 184.248 381.67 186.025 385 187L382 181z"/>
<path style="fill:#7f9db0; stroke:none;" d="M304.667 182.333C304.222 182.778 305.278 182.722 305.333 182.667C305.778 182.222 304.722 182.278 304.667 182.333M317 182C318.248 182.685 318.548 182.749 320 183C318.752 182.315 318.452 182.251 317 182M229.667 183.333C229.222 183.778 230.278 183.722 230.333 183.667C230.778 183.222 229.722 183.278 229.667 183.333M268 183C269.248 183.685 269.548 183.749 271 184C269.752 183.315 269.452 183.251 268 183M307 183C309.98 185.257 314.352 186.031 317 183C313.438 183.819 310.579 183.655 307 183M234.667 184.333C234.222 184.778 235.278 184.722 235.333 184.667C235.778 184.222 234.722 184.278 234.667 184.333z"/>
<path style="fill:#55626d; stroke:none;" d="M180 185L179 190C181.444 188.392 181.662 187.413 180 185z"/>
<path style="fill:#7f9db0; stroke:none;" d="M295 186L296 187L295 186z"/>
<path style="fill:#f9efec; stroke:none;" d="M385 187C386.248 187.685 386.548 187.749 388 188C386.752 187.315 386.452 187.251 385 187z"/>
<path style="fill:#7f9db0; stroke:none;" d="M288.667 189.333C288.222 189.778 289.278 189.722 289.333 189.667C289.778 189.222 288.722 189.278 288.667 189.333M277.333 190.667C277.278 190.722 277.222 191.778 277.667 191.333C277.722 191.278 277.778 190.222 277.333 190.667M326 190C327.506 190.683 328.315 190.826 330 191C328.494 190.317 327.685 190.174 326 190M276.333 193.667C276.278 193.722 276.222 194.778 276.667 194.333C276.722 194.278 276.778 193.222 276.333 193.667M331 193C331.406 195.092 331.217 195.02 333 196C332.309 194.612 332.015 194.139 331 193M338 193C339.248 193.685 339.548 193.749 341 194C339.752 193.315 339.452 193.251 338 193M342.667 195.333C342.222 195.778 343.278 195.722 343.333 195.667C343.778 195.222 342.722 195.278 342.667 195.333M275 196L276 197L275 196M273 199C273.406 201.092 273.217 201.02 275 202C274.309 200.612 274.015 200.139 273 199M337.333 202.667C337.278 202.722 337.222 203.778 337.667 203.333C337.722 203.278 337.778 202.222 337.333 202.667M276.333 204.667C276.278 204.722 276.222 205.778 276.667 205.333C276.722 205.278 276.778 204.222 276.333 204.667M277.333 206.667C277.278 206.722 277.222 207.778 277.667 207.333C277.722 207.278 277.778 206.222 277.333 206.667M278 209L278 213C278.71 211.24 278.71 210.76 278 209M336.667 210.333C336.222 210.778 337.278 210.722 337.333 210.667C337.778 210.222 336.722 210.278 336.667 210.333M265.333 212.667C265.278 212.722 265.222 213.778 265.667 213.333C265.722 213.278 265.778 212.222 265.333 212.667M266 218C266.684 219.58 266.805 219.777 268 221L268 218L266 218M263 220L264 225C264.651 222.766 264.318 221.926 263 220z"/>
<path style="fill:#55626d; stroke:none;" d="M378.333 229.667C378.278 229.722 378.222 230.778 378.667 230.333C378.722 230.278 378.778 229.222 378.333 229.667z"/>
<path style="fill:#7f9db0; stroke:none;" d="M266 231L267 232L266 231M264.667 232.333C264.222 232.778 265.278 232.722 265.333 232.667C265.778 232.222 264.722 232.278 264.667 232.333M260.667 234.333C260.222 234.778 261.278 234.722 261.333 234.667C261.778 234.222 260.722 234.278 260.667 234.333M187 235C187.276 238.161 188.042 240.979 189 244C190.056 241.056 189.244 238.107 189 235L187 235M252.667 235.333C252.222 235.778 253.278 235.722 253.333 235.667C253.778 235.222 252.722 235.278 252.667 235.333M259 235L260 236L259 235M180 236C180.968 238.948 182.141 239.816 185 241C183.492 238.732 182.342 237.363 180 236M254 236L255 237L254 236M256 236L255 240C256.656 238.596 256.751 238.046 256 236M284 236L284 239C284.696 237.446 284.696 237.554 284 236M249 238C249.064 240.993 248.946 242.346 252 243C251.402 241.805 251.534 242.023 250 241C251.195 239.777 251.316 239.58 252 238L249 238M270.333 238.667C270.278 238.722 270.222 239.778 270.667 239.333C270.722 239.278 270.778 238.222 270.333 238.667M333 239L334 240L333 239M271 240L271 242L274 242L274 240L271 240M282.333 240.667C282.278 240.722 282.222 241.778 282.667 241.333C282.722 241.278 282.778 240.222 282.333 240.667z"/>
<path style="fill:#55626d; stroke:none;" d="M184 241C184.169 249.17 186.264 258.339 189 266C190.314 264.388 191.187 262.915 192 261L189 262C190.478 256.071 191.777 252.188 191 246L187 248C187.583 245.064 187.27 243.726 186 241L184 241z"/>
<path style="fill:#7f9db0; stroke:none;" d="M329 242L329 244C330.635 243.455 330.455 243.635 331 242L329 242M261 243L262 244L261 243M266 243L267 244L266 243M269 243L268 246C269.766 245.021 269.955 244.778 269 243M257 244L258 245L257 244M187 248L191 246C188.737 245.177 188.247 245.996 187 248M262.667 245.333C262.222 245.778 263.278 245.722 263.333 245.667C263.778 245.222 262.722 245.278 262.667 245.333M276 245L277 246L276 245M261 246L261 248L263 248C262.455 246.365 262.635 246.545 261 246M274.667 246.333C274.222 246.778 275.278 246.722 275.333 246.667C275.778 246.222 274.722 246.278 274.667 246.333M267 247L268 248L267 247M273 247L274 248L273 247M268.667 248.333C268.222 248.778 269.278 248.722 269.333 248.667C269.778 248.222 268.722 248.278 268.667 248.333M369 249L370 250L369 249M362 252L363 253L362 252M186 254L186 258C186.71 256.24 186.71 255.759 186 254M355 254L356 255L355 254M191 255C190.388 257.109 190.017 259.084 189 261C190.498 261.479 190.35 261.4 192 261C190.466 263.674 189.485 265.948 189 269L192 267L191 264C194.75 263.375 192.85 257.158 191 255M316 256L317 257L316 256M350.667 256.333C350.222 256.778 351.278 256.722 351.333 256.667C351.778 256.222 350.722 256.278 350.667 256.333M349 258L349 268C350.346 264.793 350.346 261.207 349 258z"/>
<path style="fill:#f9efec; stroke:none;" d="M189 259L189 261L191 261L191 259L189 259z"/>
<path style="fill:#7f9db0; stroke:none;" d="M283.333 259.667C283.278 259.722 283.222 260.778 283.667 260.333C283.722 260.278 283.778 259.222 283.333 259.667M313 260L312 262L314 262C314 260.147 314.3 260.65 313 260M211.333 261.667C211.278 261.722 211.222 262.778 211.667 262.333C211.722 262.278 211.778 261.222 211.333 261.667M284.333 261.667C284.278 261.722 284.222 262.778 284.667 262.333C284.722 262.278 284.778 261.222 284.333 261.667M216 262C217.139 263.015 217.612 263.309 219 264C218.02 262.217 218.092 262.406 216 262M310.667 262.333C310.222 262.778 311.278 262.722 311.333 262.667C311.778 262.222 310.722 262.278 310.667 262.333M188 263L188 266C188.696 264.446 188.696 264.554 188 263M212.667 263.333C212.222 263.778 213.278 263.722 213.333 263.667C213.778 263.222 212.722 263.278 212.667 263.333M292 263L293 264L292 263M224.667 264.333C224.222 264.778 225.278 264.722 225.333 264.667C225.778 264.222 224.722 264.278 224.667 264.333M284 264L285 265L284 264M281 266L281 268C282.635 267.455 282.455 267.635 283 266L281 266M283 267L284 268L283 267M237 268L238 269L237 268M265 268L266 269L265 268M194 269L193 274C194.879 272.377 194.916 271.3 194 269M242 269L243 270L242 269M280 275L280 278L286 278C285.132 280.355 284.426 282.531 284 285C287.175 284.546 290.957 285.276 293.961 284.22C296.39 283.366 297.865 281.121 300.17 280.102C303.018 278.842 306.96 279.938 310 280C310.11 277.558 310.428 275.377 311 273C312.186 274.186 312.584 274.528 314 275L315 271L308 271L308 275C307.356 272.894 307.094 271.205 307 269C298.111 271.032 289.024 273.784 280 275M280.667 270.333C280.222 270.778 281.278 270.722 281.333 270.667C281.778 270.222 280.722 270.278 280.667 270.333M253 271L254 272L253 271M272 274C273.223 275.195 273.42 275.316 275 276C274.02 274.217 274.092 274.406 272 274M192 278L193 279L192 278M346 278L346 285C347.059 282.466 347.059 280.534 346 278M197.333 279.667C197.278 279.722 197.222 280.778 197.667 280.333C197.722 280.278 197.778 279.222 197.333 279.667M244.333 282.667C244.278 282.722 244.222 283.778 244.667 283.333C244.722 283.278 244.778 282.222 244.333 282.667M278 282L280 285C280.699 283.007 279.994 282.847 278 282z"/>
<path style="fill:#f9efec; stroke:none;" d="M279 283L279 286C279.696 284.446 279.696 284.554 279 283z"/>
<path style="fill:#7f9db0; stroke:none;" d="M199 284L200 285L199 284M246 284L246 287C246.696 285.446 246.696 285.554 246 284M345.333 285.667C345.278 285.722 345.222 286.778 345.667 286.333C345.722 286.278 345.778 285.222 345.333 285.667M200.333 286.667C200.278 286.722 200.222 287.778 200.667 287.333C200.722 287.278 200.778 286.222 200.333 286.667M346 287L347 288L346 287M236.667 288.333C236.222 288.778 237.278 288.722 237.333 288.667C237.778 288.222 236.722 288.278 236.667 288.333M202.333 290.667C202.278 290.722 202.222 291.778 202.667 291.333C202.722 291.278 202.778 290.222 202.333 290.667M239.333 290.667C239.278 290.722 239.222 291.778 239.667 291.333C239.722 291.278 239.778 290.222 239.333 290.667M260 290L261 291L260 290M348 290L349 291L348 290M236.333 291.667C236.278 291.722 236.222 292.778 236.667 292.333C236.722 292.278 236.778 291.222 236.333 291.667z"/>
<path style="fill:#f9efec; stroke:none;" d="M240 291C241.248 291.685 241.548 291.749 243 292C241.752 291.315 241.452 291.251 240 291z"/>
<path style="fill:#7f9db0; stroke:none;" d="M243 291L244 292L243 291M203.333 292.667C203.278 292.722 203.222 293.778 203.667 293.333C203.722 293.278 203.778 292.222 203.333 292.667M198 293L199 294L198 293M237.667 293.333C237.222 293.778 238.278 293.722 238.333 293.667C238.778 293.222 237.722 293.278 237.667 293.333M266.333 293.667C266.278 293.722 266.222 294.778 266.667 294.333C266.722 294.278 266.778 293.222 266.333 293.667M204.333 294.667C204.278 294.722 204.222 295.778 204.667 295.333C204.722 295.278 204.778 294.222 204.333 294.667M240.667 294.333C240.222 294.778 241.278 294.722 241.333 294.667C241.778 294.222 240.722 294.278 240.667 294.333M272.333 296.667C272.278 296.722 272.222 297.778 272.667 297.333C272.722 297.278 272.778 296.222 272.333 296.667M202.333 298.667C202.278 298.722 202.222 299.778 202.667 299.333C202.722 299.278 202.778 298.222 202.333 298.667M206 300C206.684 301.58 206.805 301.777 208 303C207.316 301.42 207.195 301.223 206 300M203 301L204 302L203 301M204 302L205 303L204 302M272 303L273 304L272 303M208 304L209 305L208 304M206 305L207 306L206 305M211.333 306.667C211.278 306.722 211.222 307.778 211.667 307.333C211.722 307.278 211.778 306.222 211.333 306.667M275 307L276 308L275 307M213 308C213.674 310.297 213.965 310.774 216 312C215.045 310.233 214.434 309.393 213 308M278 308L278 311C278.696 309.446 278.696 309.554 278 308M210.333 310.667C210.278 310.722 210.222 311.778 210.667 311.333C210.722 311.278 210.778 310.222 210.333 310.667M212 313L212 316C212.696 314.446 212.696 314.554 212 313M376 314L377 315L376 314M276.667 316.333C276.222 316.778 277.278 316.722 277.333 316.667C277.778 316.222 276.722 316.278 276.667 316.333M378.333 316.667C378.278 316.722 378.222 317.778 378.667 317.333C378.722 317.278 378.778 316.222 378.333 316.667M274 317L275 318L274 317M222 318L222 321C222.696 319.446 222.696 319.554 222 318M270.667 318.333C270.222 318.778 271.278 318.722 271.333 318.667C271.778 318.222 270.722 318.278 270.667 318.333M379.333 318.667C379.278 318.722 379.222 319.778 379.667 319.333C379.722 319.278 379.778 318.222 379.333 318.667M267 319L267 321C268.635 320.455 268.455 320.635 269 319L267 319M322 348C329.489 346.775 333.784 336.696 336 330C337.306 331.681 338.182 333.048 339 335C345.577 333.385 347.691 329.347 349 323C346.311 322.582 345.446 322.283 344 320C339.157 321.383 337.169 324.935 334.308 328.845C329.774 335.04 325.217 340.996 322 348M380.333 320.667C380.278 320.722 380.222 321.778 380.667 321.333C380.722 321.278 380.778 320.222 380.333 320.667M223 321L224 322L223 321M264.667 321.333C264.222 321.778 265.278 321.722 265.333 321.667C265.778 321.222 264.722 321.278 264.667 321.333M381.333 322.667C381.278 322.722 381.222 323.778 381.667 323.333C381.722 323.278 381.778 322.222 381.333 322.667M218 323L218 326C218.696 324.446 218.696 324.554 218 323M262 323L263 324L262 323M382.333 324.667C382.278 324.722 382.222 325.778 382.667 325.333C382.722 325.278 382.778 324.222 382.333 324.667M228 326C230.613 327.098 233.165 326.993 236 327C233.387 325.902 230.836 326.007 228 326M244.333 326.667C244.278 326.722 244.222 327.778 244.667 327.333C244.722 327.278 244.778 326.222 244.333 326.667M383.333 326.667C383.278 326.722 383.222 327.778 383.667 327.333C383.722 327.278 383.778 326.222 383.333 326.667M219 327L220 331C220.553 328.992 220.303 328.668 219 327M236 328C238.419 330.326 240.019 330.66 243 329C240.582 328.278 238.528 328.052 236 328M384.333 328.667C384.278 328.722 384.222 329.778 384.667 329.333C384.722 329.278 384.778 328.222 384.333 328.667M385.333 332.667C385.278 332.722 385.222 333.778 385.667 333.333C385.722 333.278 385.778 332.222 385.333 332.667M222 334L222 338C222.71 336.241 222.71 335.759 222 334M387 334L388 340C388.736 337.567 388.305 336.181 387 334M389.333 340.667C389.278 340.722 389.222 341.778 389.667 341.333C389.722 341.278 389.778 340.222 389.333 340.667M218 341L216 345C217.981 343.84 218.74 342.951 220 341L218 341M391 343L392 344L391 343M215 346L216 347L215 346M214 347L215 348L214 347M393.667 347.333C393.222 347.778 394.278 347.722 394.333 347.667C394.778 347.222 393.722 347.278 393.667 347.333M320 348C317.594 350.464 315.881 352.653 315 356C318.736 354.783 321.271 352.01 320 348M211 349L211 351C212.635 350.455 212.455 350.635 213 349L211 349M400.667 352.333C400.222 352.778 401.278 352.722 401.333 352.667C401.778 352.222 400.722 352.278 400.667 352.333M205.667 355.333C205.222 355.778 206.278 355.722 206.333 355.667C206.778 355.222 205.722 355.278 205.667 355.333M404 355L405 356L404 355M406.667 356.333C406.222 356.778 407.278 356.722 407.333 356.667C407.778 356.222 406.722 356.278 406.667 356.333M201.667 357.333C201.222 357.778 202.278 357.722 202.333 357.667C202.778 357.222 201.722 357.278 201.667 357.333M307 357C305.717 361.814 302.751 364.837 299 368L300 363C296.665 361.751 293.558 361.155 290 361C291.223 362.195 291.42 362.316 293 363L291 369L287 369C287.986 367.522 288 367.797 288 366C282.361 366.785 277.2 369.734 272 372C275.905 373.524 280.014 371.822 284 371C279.946 376.472 279.79 381.572 272 382C272.459 387.894 278.689 389.745 279 383C281.121 382.754 282.874 382.769 285 383C282.931 384.843 280.13 386.903 283 389L283 391C281.217 391.98 281.406 391.908 281 394L276 393L274 400C287.214 396.174 296.117 380.437 304.617 370.455C308.001 366.481 312.584 363.167 314 358C311.51 358.935 310.001 360.264 308 362L309 357L307 357M196 359C197.506 359.683 198.315 359.826 200 360C198.494 359.317 197.685 359.174 196 359M200 370L197 370L196 378C199.778 376.048 200.966 375.312 205 377L204 370L209 370L211 363L218 364L216 359C207.765 359.001 201.253 360.646 200 370M409.667 359.333C409.222 359.778 410.278 359.722 410.333 359.667C410.778 359.222 409.722 359.278 409.667 359.333M194.667 360.333C194.222 360.778 195.278 360.722 195.333 360.667C195.778 360.222 194.722 360.278 194.667 360.333M412 361C413.458 362.081 414.248 362.436 416 363C414.457 361.733 413.952 361.511 412 361M189 362C190.248 362.685 190.548 362.749 192 363C190.752 362.315 190.452 362.251 189 362M264 362L264 364L268 364L268 362L264 362M187.667 363.333C187.222 363.778 188.278 363.722 188.333 363.667C188.778 363.222 187.722 363.278 187.667 363.333M260 363C261.248 363.685 261.548 363.749 263 364C261.752 363.315 261.452 363.251 260 363M400 363L400 367C400.685 365.752 400.749 365.452 401 364C403.729 365.315 405.982 366.573 409 367C407.973 369.398 407.322 371.416 407 374C418.96 377.412 430.075 385.265 442 388C440.09 382.404 433.284 381.637 433 375C427.704 371.903 423.981 371.954 418 372L419 368C412.774 366.006 406.557 363.572 400 363M252 364C253.769 364.779 255.036 364.912 257 365C255.231 364.221 253.964 364.088 252 364M246 365C245.18 368.752 244.444 371.12 241 373C239.365 370.455 238.007 370.221 235 370C241.116 374.057 252.385 378.37 257 370L248 371L248 365L246 365M419 365L420 366L419 365M179 367C180.846 367.468 182.069 367.301 184 367C181.956 366.226 181.155 366.408 179 367M176.667 368.333C176.222 368.778 177.278 368.722 177.333 368.667C177.778 368.222 176.722 368.278 176.667 368.333M363 368C366.29 371.97 373.058 372.894 378 373L378 382L384 383C384 381.203 383.986 381.479 383 380C386.558 380.765 388.709 380.558 392 379C391.428 376.623 391.11 374.442 391 372C387.085 372.003 382.864 372.678 379 372.07C373.557 371.213 368.517 368.744 363 368M174.667 369.333C174.222 369.778 175.278 369.722 175.333 369.667C175.778 369.222 174.722 369.278 174.667 369.333M166 376L170 374C167.777 373.631 167.265 374.14 166 376z"/>
<path style="fill:#55626d; stroke:none;" d="M380 375L380 380C382.841 378.873 383.492 378.013 384 375L380 375M387 375L387 378L390 378L390 375L387 375z"/>
<path style="fill:#7f9db0; stroke:none;" d="M164.667 376.333C164.222 376.778 165.278 376.722 165.333 376.667C165.778 376.222 164.722 376.278 164.667 376.333M435 377L436 378L435 377M162 378L163 379L162 378M436.667 378.333C436.222 378.778 437.278 378.722 437.333 378.667C437.778 378.222 436.722 378.278 436.667 378.333M160.667 379.333C160.222 379.778 161.278 379.722 161.333 379.667C161.778 379.222 160.722 379.278 160.667 379.333M439 379L440 380L439 379M159 380L160 381L159 380M156 383L159 382C157.222 381.045 156.979 381.234 156 383M440 381L441 382L440 381M161 382C158.518 384.298 156.863 384.96 154 383C152.339 387.407 162.755 386.915 161 382M441.667 382.333C441.222 382.778 442.278 382.722 442.333 382.667C442.778 382.222 441.722 382.278 441.667 382.333z"/>
<path style="fill:#f9efec; stroke:none;" d="M291 383C290.014 384.479 290 384.203 290 386C291.289 384.557 291.401 384.766 291 383z"/>
<path style="fill:#7f9db0; stroke:none;" d="M443.667 383.333C443.222 383.778 444.278 383.722 444.333 383.667C444.778 383.222 443.722 383.278 443.667 383.333M177 384L177 387L179 386C178.455 384.365 178.635 384.545 177 384M445 384L446 385L445 384M150 385L150 387C151.635 386.455 151.455 386.635 152 385L150 385M446 385C447.248 385.685 447.548 385.749 449 386C447.752 385.315 447.452 385.251 446 385M154 388L154 391C154.696 389.446 154.696 389.554 154 388M163 388L164 389L163 388M179 388L179 391C179.696 389.446 179.696 389.554 179 388M157 391L160 390C158.222 389.045 157.979 389.234 157 391M142 391L142 393C143.635 392.455 143.455 392.635 144 391L142 391M164 391L165 392L164 391M178 391L179 392L178 391M152.667 392.333C152.222 392.778 153.278 392.722 153.333 392.667C153.778 392.222 152.722 392.278 152.667 392.333M162 392L163 393L162 392M140 394L140 396C141.635 395.455 141.455 395.635 142 394L140 394M175 394L176 395L175 394M338 394C330.2 398.84 324.975 406.271 318.83 412.996C314.621 417.603 310.386 421.091 308 427C313.408 425.144 314.376 419.955 321 420C321.559 411.766 331.974 399.072 340 397C339.309 395.612 339.015 395.139 338 394M138.333 396.667C138.278 396.722 138.222 397.778 138.667 397.333C138.722 397.278 138.778 396.222 138.333 396.667M242 396C245.701 397.783 250.056 398.737 254 400C250.647 396.478 246.722 396.098 242 396M163 397C164.769 397.779 166.036 397.912 168 398C166.231 397.221 164.964 397.088 163 397z"/>
<path style="fill:#f9efec; stroke:none;" d="M240 397C238.722 403.884 238.37 411.151 240 418L239 419C231.1 416.471 228.154 427.65 228 434L232 434L231 430C233.364 431.429 235.021 434.695 238.058 434.704C244.885 434.725 253.987 423.561 258.841 419.207C260.628 417.604 263.576 415.467 263.712 412.826C263.82 410.747 262.296 408.723 261.325 407.005C256.903 399.18 248.562 397.071 240 397z"/>
<path style="fill:#7f9db0; stroke:none;" d="M168.667 398.333C168.222 398.778 169.278 398.722 169.333 398.667C169.778 398.222 168.722 398.278 168.667 398.333M238 399C238 403.57 239.224 409.262 235 412L236 416C229.124 416.534 228.408 422.218 226.66 428C226.052 430.014 224.63 433.28 226.644 434.968C228.753 436.737 232.63 435.438 235 435C234.155 432.148 233.982 430.636 231 430L232 434L228 434C228.335 427.866 231.58 417.278 239 419L240 418C238.825 411.668 238.5 405.301 240 399L238 399M135.333 400.667C135.278 400.722 135.222 401.778 135.667 401.333C135.722 401.278 135.778 400.222 135.333 400.667M188 407C185.602 405.973 183.584 405.322 181 405C184.026 410.269 196.405 421.327 197 409L190 409L190 404C192.035 405.788 193.347 406.463 196 407C194.844 403.688 191.795 402.884 190 400C186.03 401.331 186.412 403.505 188 407M255 400C256.248 400.685 256.548 400.749 258 401C256.752 400.315 256.452 400.251 255 400M134.333 402.667C134.278 402.722 134.222 403.778 134.667 403.333C134.722 403.278 134.778 402.222 134.333 402.667M437 403C439.819 405.088 442.554 406.343 446 407L446 411C442.522 410.779 439.39 409.696 436 409C438.382 412.689 444.777 414.046 449 415C448.97 406.509 445.522 403.39 437 403M260.333 404.667C260.278 404.722 260.222 405.778 260.667 405.333C260.722 405.278 260.778 404.222 260.333 404.667M261.333 406.667C261.278 406.722 261.222 407.778 261.667 407.333C261.722 407.278 261.778 406.222 261.333 406.667M262 408C262.684 409.58 262.805 409.777 264 411C263.316 409.42 263.195 409.223 262 408M128 409L129 410L128 409M126 412L127 413L126 412M125 413L126 414L125 413M264 413L265 414L264 413M124 415L125 416L124 415M262 415L263 416L262 415M123 416L124 417L123 416M261 416L262 417L261 416M122 417L123 418L122 417M371 417L371 419L373 419L373 417L371 417M376 417C377.248 417.685 377.548 417.749 379 418C377.752 417.315 377.452 417.251 376 417M259 418L260 419L259 418M382 418C381.499 420.686 381.117 423.27 381 426L385 426C383.947 423.15 383.69 421.755 385 419C383.521 418.014 383.797 418 382 418M389 418L389 420L392 420L392 418L389 418M120 420L121 421L120 420M254 422L254 424C255.635 423.455 255.455 423.635 256 422L254 422M119 423L120 424L119 423M118 425L119 426L118 425M387 428L392 427L392 425C389.007 425.064 387.654 424.946 387 428M117.333 426.667C117.278 426.722 117.222 427.778 117.667 427.333C117.722 427.278 117.778 426.222 117.333 426.667M249 426L249 428C250.635 427.455 250.455 427.635 251 426L249 426M257 428C252.781 432.293 243.292 445.431 237 440C233.053 441.64 230.177 441.514 226 441C225.731 443.504 225.578 445.53 226 448L231 447C229.494 446.317 228.685 446.174 227 446L227 444L236 444C234.181 447.365 231.52 448.662 228 450C235.431 452.806 248.527 440.782 253.867 436.101C256.479 433.811 257.982 431.362 257 428M115.333 431.667C115.278 431.722 115.222 432.778 115.667 432.333C115.722 432.278 115.778 431.222 115.333 431.667M432 431C435.203 439.178 437.774 446.652 448 445L448 451L451 451C450.893 441.953 439.642 434.898 432 431M368 432C372.051 433.7 376.668 432.757 381 433.17C387.388 433.778 393.624 435.709 400 436L400 434C389.215 433.149 378.865 432 368 432M114 433L115 434L114 433M230 440C233.692 439.418 236.484 437.178 240 436C235.956 434.473 232.246 436.514 230 440M113 438L114 439L113 438M111 441L112 442L111 441M110.333 442.667C110.278 442.722 110.222 443.778 110.667 443.333C110.722 443.278 110.778 442.222 110.333 442.667M109 444L109 447C109.696 445.446 109.696 445.554 109 444M108 447L107 451C108.303 449.332 108.553 449.008 108 447M222.667 450.333C222.222 450.778 223.278 450.722 223.333 450.667C223.778 450.222 222.722 450.278 222.667 450.333z"/>
</svg>
